<?xml version="1.0" encoding="UTF-8"?>
<svg id="Layer_2" data-name="Layer 2" xmlns="http://www.w3.org/2000/svg" xmlns:xlink="http://www.w3.org/1999/xlink" viewBox="0 0 1218.94 219.67">
  <defs>
    <style>
      .cls-1 {
        fill: #1a1a1a;
      }

      .cls-2 {
        fill: url(#linear-gradient);
      }
    </style>
    <linearGradient id="linear-gradient" x1="77.66" y1="183.2" x2="74.73" y2="117.58" gradientUnits="userSpaceOnUse">
      <stop offset="0" stop-color="#704399"/>
      <stop offset="1" stop-color="#c93727"/>
    </linearGradient>
  </defs>
  <g id="Layer_1-2" data-name="Layer 1">
    <g>
      <path class="cls-1" d="M306.08,90.25v92.3c0,1.8-1.46,3.26-3.26,3.26h-34.89c-1.8,0-3.26-1.46-3.26-3.26v-20.37h-1.59c-.8,6.64-11.94,26.28-41.67,26.28-21.23,0-44.33-10.09-44.33-38.75,0-31.32,27.34-36.89,47.78-39.28l25.75-3.45c11.15-1.33,11.94-4.25,11.94-14.07,0-13.8-8.23-15.93-17.25-15.93s-19.38,1.86-19.38,15.4v1.06l-37.58.49c-1.82.02-3.3-1.44-3.3-3.26v-2.54c0-26.81,17.25-43,61.58-43s59.46,15.39,59.46,45.12ZM262.55,131.05c0-2.19-2.09-3.71-4.19-3.11-1.95.55-4.38.9-7.49,1.32l-15.13,2.12c-7.96,1.59-15.66,3.98-15.66,12.74,0,4.51,2.12,13.01,18.31,13.01s24.15-10.62,24.15-19.64v-6.44Z"/>
      <path class="cls-1" d="M428.71,50.67v30.38c0,1.93-1.68,3.42-3.6,3.24-2.77-.27-5.09-.4-7.55-.4-19.11,0-39.55,9.29-39.55,44.06v54.61c0,1.8-1.46,3.26-3.26,3.26h-37.02c-1.8,0-3.26-1.46-3.26-3.26V51.04c0-1.8,1.46-3.26,3.26-3.26h37.02c1.8,0,3.26,1.46,3.26,3.26v30.98h1.06c5.04-21.77,18.05-35.3,39.02-35.3,2.27,0,4.86.16,7.89.73,1.56.29,2.73,1.63,2.73,3.22Z"/>
      <path class="cls-1" d="M435.62,116.79c0-50.96,31.59-71.67,59.72-71.67,20.44,0,34.51,10.88,38.22,21.23h.26V3.26c0-1.8,1.46-3.26,3.26-3.26h37.02c1.8,0,3.26,1.46,3.26,3.26v179.29c0,1.8-1.46,3.26-3.26,3.26h-37.02c-1.8,0-3.26-1.46-3.26-3.26v-15.32h-.26c-3.72,10.35-17.78,21.23-38.22,21.23-28.13,0-59.72-20.44-59.72-71.67ZM535.68,116.79c0-24.42-14.33-35.57-29.46-35.57s-29.73,11.15-29.73,35.57,14.33,35.57,29.73,35.57,29.46-11.15,29.46-35.57Z"/>
      <path class="cls-1" d="M710.47,184.15l-31.57-55.88c-.58-1.02-1.66-1.66-2.84-1.66h-24.3c-1.8,0-3.26,1.46-3.26,3.26v52.68c0,1.8-1.46,3.26-3.26,3.26h-37.81c-1.8,0-3.26-1.46-3.26-3.26V3.26c0-1.8,1.46-3.26,3.26-3.26h73.72c50.96,0,72.46,26.81,72.46,63.17,0,25.06-10.13,45.53-32.71,55.89-1.78.82-2.52,2.94-1.54,4.63l33.26,57.22c1.26,2.17-.3,4.9-2.82,4.9h-36.5c-1.17,0-2.26-.63-2.84-1.66ZM648.49,84.6c0,1.8,1.46,3.26,3.26,3.26h27.8c19.91,0,28.14-10.09,28.14-24.69s-8.23-24.42-28.14-24.42h-27.8c-1.8,0-3.26,1.46-3.26,3.26v42.59Z"/>
      <path class="cls-1" d="M767.94,116.79c0-50.7,35.04-71.67,70.07-71.67s70.07,20.97,70.07,71.67-35.3,71.67-70.07,71.67-70.07-20.97-70.07-71.67ZM867.21,116.79c0-24.42-12.47-35.57-29.2-35.57s-29.46,11.15-29.46,35.57,12.47,35.57,29.46,35.57,29.2-11.15,29.2-35.57Z"/>
      <path class="cls-1" d="M922.95,117.06c0-53.09,36.36-71.93,70.07-71.93,23.53,0,57.65,8.57,64.05,54.18.27,1.94-1.28,3.68-3.25,3.68h-32.2c-1.52,0-2.79-1.06-3.17-2.53-3.42-13.12-12.21-19.23-25.7-19.23-20.97,0-29.2,15.92-29.2,35.83s8.23,35.3,29.2,35.3c13.98,0,22.33-6.58,25.7-19.51.38-1.46,1.65-2.53,3.16-2.53h32.29c1.93,0,3.48,1.7,3.25,3.62-5.43,45.19-40.08,54.51-64.13,54.51-33.71,0-70.07-18.85-70.07-71.4Z"/>
      <path class="cls-1" d="M1130.87,137.07l-7.43,7.98c-.56.6-.87,1.4-.87,2.22v35.27c0,1.8-1.46,3.26-3.26,3.26h-37.02c-1.8,0-3.26-1.46-3.26-3.26V3.26c0-1.8,1.46-3.26,3.26-3.26h37.02c1.8,0,3.26,1.46,3.26,3.26v87.35c0,3.01,3.73,4.41,5.71,2.15l38.44-43.87c.62-.71,1.51-1.11,2.45-1.11h38.47c2.86,0,4.33,3.42,2.37,5.5l-48.09,50.86c-1.11,1.17-1.19,2.98-.2,4.25l56.52,72.15c1.67,2.14.15,5.27-2.56,5.27h-39.52c-.99,0-1.93-.45-2.55-1.22l-37.81-47.32c-1.24-1.55-3.57-1.64-4.93-.19Z"/>
      <g>
        <path class="cls-1" d="M155.54,3.33v174.82c-5.18-5.46-10.36-10.87-15.54-16.32-4.11-4.35-8.28-8.69-12.39-12.99-10.13-10.73-31.53-33.85-43-46.28l-6.24-6.75c-1.39-1.53-3.42-2.4-5.55-2.4s-3.93.79-5.41,2.22L0,162.15V3.33C0,1.49,1.49,0,3.33,0h37.82c1.84,0,3.33,1.49,3.33,3.33v70.97h66.3V3.33c0-1.84,1.49-3.33,3.33-3.33h38.09c1.84,0,3.33,1.49,3.33,3.33Z"/>
        <path class="cls-2" d="M155.54,184.85v15.07c0,7.72-4.44,14.93-11.37,17.94-.42.18-.83.32-1.25.51-.6.18-1.2.37-1.85.51-.05,0-.14.05-.19.05-2.31.51-4.48.74-6.61.74-7.31,0-13.82-2.64-19.97-6.33-.88-.56-1.76-1.11-2.64-1.66-2.17-1.39-4.25-2.91-6.33-4.48-.74-.51-1.48-1.02-2.17-1.57-3.01-2.27-5.96-4.58-8.92-6.61-.79-.55-1.57-1.11-2.4-1.66-.42-.28-.83-.51-1.29-.79-.88-.51-1.76-.97-2.64-1.34-2.17-1.06-4.44-1.76-6.75-2.22-2.17-.42-4.39-.6-6.61-.6-5.69,0-11.37,1.25-17.02,3.19-1.11.37-2.27.83-3.42,1.25-2.91,1.16-5.78,2.45-8.55,3.79-1.02.46-2.03.97-3.01,1.48-1.71.83-3.38,1.76-5.04,2.73-.6.37-1.2.51-1.76.51-.92,0-1.76-.42-2.36-1.06-.46-.46-.83-1.06-.97-1.71-.14-.6-.09-1.25.14-1.85.14-.37.37-.74.69-1.11,6.29-6.94,12.53-13.92,18.36-21.22,5.13-6.43,18.63-22.89,18.86-30.61.18-5.96-4.44-12.3-8.69-17.2-.09-.14-1-1.21-2.64-1.2-.74,0-1.53.28-2.13.83-5.32,4.72-10.5,10.03-15.49,15.12-.83.83-1.66,1.71-2.59,2.64C25.11,161.92.74,186.33,0,186.38v-17.76l70.7-69.73c.6-.6,1.39-.88,2.13-.88.79,0,1.57.28,2.17.92,8.05,8.69,36.85,39.95,49.29,53.08,10.4,10.91,20.81,21.92,31.26,32.83Z"/>
      </g>
    </g>
  </g>
</svg>