<?xml version="1.0" encoding="UTF-8"?>
<svg id="Layer_2" data-name="Layer 2" xmlns="http://www.w3.org/2000/svg" xmlns:xlink="http://www.w3.org/1999/xlink" viewBox="0 0 1249.04 225.1">
  <defs>
    <style>
      .cls-1 {
        fill: #fff;
      }

      .cls-2 {
        fill: url(#linear-gradient);
      }
    </style>
    <linearGradient id="linear-gradient" x1="79.58" y1="187.72" x2="76.58" y2="120.49" gradientUnits="userSpaceOnUse">
      <stop offset="0" stop-color="#704399"/>
      <stop offset="1" stop-color="#c93727"/>
    </linearGradient>
  </defs>
  <g id="Layer_1-2" data-name="Layer 1">
    <g>
      <path class="cls-1" d="M313.64,92.48v94.58c0,1.84-1.49,3.34-3.34,3.34h-35.75c-1.84,0-3.34-1.49-3.34-3.34v-20.87h-1.63c-.82,6.8-12.24,26.93-42.7,26.93-21.76,0-45.42-10.33-45.42-39.71,0-32.09,28.01-37.81,48.96-40.25l26.38-3.54c11.42-1.36,12.24-4.35,12.24-14.42,0-14.14-8.43-16.32-17.68-16.32s-19.86,1.9-19.86,15.78v1.09l-38.51.5c-1.86.02-3.38-1.48-3.38-3.34v-2.6c0-27.47,17.68-44.06,63.1-44.06s60.93,15.78,60.93,46.24ZM269.03,134.29c0-2.24-2.14-3.8-4.3-3.19-2,.57-4.49.92-7.67,1.36l-15.5,2.18c-8.16,1.63-16.05,4.08-16.05,13.05,0,4.62,2.17,13.33,18.77,13.33s24.75-10.88,24.75-20.13v-6.6Z"/>
      <path class="cls-1" d="M439.3,51.92v31.13c0,1.98-1.72,3.51-3.69,3.32-2.83-.28-5.22-.41-7.74-.41-19.58,0-40.52,9.52-40.52,45.15v55.96c0,1.84-1.49,3.34-3.34,3.34h-37.93c-1.84,0-3.34-1.49-3.34-3.34V52.3c0-1.84,1.49-3.34,3.34-3.34h37.93c1.84,0,3.34,1.49,3.34,3.34v31.75h1.09c5.17-22.3,18.49-36.17,39.98-36.17,2.32,0,4.98.16,8.08.75,1.6.3,2.8,1.67,2.8,3.3Z"/>
      <path class="cls-1" d="M446.37,119.67c0-52.22,32.37-73.44,61.2-73.44,20.94,0,35.36,11.15,39.17,21.76h.27V3.34c0-1.84,1.49-3.34,3.34-3.34h37.93c1.84,0,3.34,1.49,3.34,3.34v183.71c0,1.84-1.49,3.34-3.34,3.34h-37.93c-1.84,0-3.34-1.49-3.34-3.34v-15.7h-.27c-3.81,10.61-18.22,21.76-39.17,21.76-28.83,0-61.2-20.94-61.2-73.44ZM548.91,119.67c0-25.02-14.69-36.45-30.19-36.45s-30.46,11.42-30.46,36.45,14.69,36.45,30.46,36.45,30.19-11.42,30.19-36.45Z"/>
      <path class="cls-1" d="M728.01,188.69l-32.35-57.26c-.59-1.05-1.7-1.7-2.91-1.7h-24.9c-1.84,0-3.34,1.49-3.34,3.34v53.98c0,1.84-1.49,3.34-3.34,3.34h-38.75c-1.84,0-3.34-1.49-3.34-3.34V3.34c0-1.84,1.49-3.34,3.34-3.34h75.54c52.22,0,74.25,27.47,74.25,64.73,0,25.68-10.38,46.65-33.51,57.27-1.82.84-2.59,3.01-1.58,4.74l34.08,58.63c1.29,2.23-.31,5.02-2.89,5.02h-37.4c-1.2,0-2.31-.65-2.91-1.7ZM664.51,86.69c0,1.84,1.49,3.34,3.34,3.34h28.48c20.4,0,28.83-10.34,28.83-25.3s-8.43-25.02-28.83-25.02h-28.48c-1.84,0-3.34,1.49-3.34,3.34v43.64Z"/>
      <path class="cls-1" d="M786.9,119.67c0-51.95,35.9-73.44,71.8-73.44s71.8,21.49,71.8,73.44-36.17,73.44-71.8,73.44-71.8-21.49-71.8-73.44ZM888.63,119.67c0-25.02-12.78-36.45-29.92-36.45s-30.19,11.42-30.19,36.45,12.78,36.45,30.19,36.45,29.92-11.42,29.92-36.45Z"/>
      <path class="cls-1" d="M945.75,119.95c0-54.4,37.26-73.71,71.8-73.71,24.12,0,59.08,8.78,65.63,55.52.28,1.99-1.32,3.77-3.33,3.77h-33c-1.56,0-2.86-1.09-3.25-2.6-3.5-13.44-12.51-19.71-26.34-19.71-21.49,0-29.92,16.32-29.92,36.72s8.43,36.17,29.92,36.17c14.33,0,22.88-6.74,26.33-19.99.39-1.5,1.69-2.59,3.24-2.59h33.09c1.98,0,3.57,1.74,3.33,3.71-5.57,46.3-41.07,55.86-65.72,55.86-34.54,0-71.8-19.31-71.8-73.16Z"/>
      <path class="cls-1" d="M1158.79,140.45l-7.62,8.18c-.58.62-.9,1.43-.9,2.28v36.15c0,1.84-1.49,3.34-3.34,3.34h-37.93c-1.84,0-3.34-1.49-3.34-3.34V3.34c0-1.84,1.49-3.34,3.34-3.34h37.93c1.84,0,3.34,1.49,3.34,3.34v89.51c0,3.08,3.82,4.52,5.85,2.2l39.39-44.95c.63-.72,1.55-1.14,2.51-1.14h39.42c2.93,0,4.44,3.5,2.43,5.63l-49.27,52.12c-1.14,1.2-1.22,3.05-.2,4.35l57.92,73.94c1.72,2.19.16,5.4-2.63,5.4h-40.5c-1.01,0-1.97-.46-2.61-1.25l-38.74-48.49c-1.27-1.59-3.66-1.68-5.05-.19Z"/>
      <g>
        <path class="cls-1" d="M159.38,3.41v179.14c-5.31-5.59-10.61-11.13-15.92-16.72-4.22-4.45-8.48-8.91-12.7-13.31-10.38-10.99-32.31-34.68-44.06-47.43l-6.4-6.92c-1.42-1.56-3.51-2.46-5.69-2.46s-4.03.81-5.54,2.27L0,166.16V3.41C0,1.53,1.53,0,3.41,0h38.75c1.89,0,3.41,1.53,3.41,3.41v72.72h67.94V3.41c0-1.89,1.53-3.41,3.41-3.41h39.04c1.89,0,3.41,1.53,3.41,3.41Z"/>
        <path class="cls-2" d="M159.38,189.42v15.45c0,7.91-4.55,15.3-11.66,18.38-.43.19-.85.33-1.28.52-.62.19-1.23.38-1.89.52-.05,0-.14.05-.19.05-2.37.52-4.6.76-6.78.76-7.49,0-14.17-2.7-20.47-6.49-.9-.57-1.8-1.14-2.7-1.71-2.23-1.42-4.36-2.98-6.49-4.6-.76-.52-1.52-1.04-2.23-1.61-3.08-2.32-6.11-4.69-9.14-6.78-.81-.57-1.61-1.14-2.46-1.71-.43-.28-.85-.52-1.33-.81-.9-.52-1.8-1-2.7-1.37-2.23-1.09-4.55-1.8-6.92-2.27-2.23-.43-4.5-.62-6.78-.62-5.83,0-11.66,1.28-17.44,3.27-1.14.38-2.32.85-3.51,1.28-2.98,1.18-5.92,2.51-8.77,3.89-1.04.47-2.08.99-3.08,1.52-1.75.85-3.46,1.8-5.16,2.8-.62.38-1.23.52-1.8.52-.95,0-1.8-.43-2.42-1.09-.47-.47-.85-1.09-.99-1.75-.14-.62-.09-1.28.14-1.9.14-.38.38-.76.71-1.14,6.44-7.11,12.84-14.26,18.81-21.75,5.26-6.59,19.09-23.45,19.33-31.36.19-6.11-4.55-12.6-8.91-17.62-.09-.14-1.03-1.24-2.7-1.23-.76,0-1.56.28-2.18.85-5.45,4.83-10.76,10.28-15.87,15.49-.85.85-1.71,1.75-2.65,2.7C25.73,165.92.76,190.94,0,190.98v-18.19l72.44-71.45c.62-.62,1.42-.9,2.18-.9.81,0,1.61.28,2.23.95,8.24,8.91,37.76,40.94,50.51,54.39,10.66,11.18,21.32,22.46,32.03,33.64Z"/>
      </g>
    </g>
  </g>
</svg>